<svg width="293" height="80" viewBox="0 0 293 80" fill="none" xmlns="http://www.w3.org/2000/svg">
<g clip-path="url(#logo-clip-path)">
<circle cx="40" cy="40" r="40" fill="white"/>
<circle cx="40" cy="40" r="38" fill="#45B458"/>
<path d="M66.6073 35.8626L60.4546 34.9463C59.906 32.3718 58.8962 29.9655 57.5123 27.8211L61.2338 22.8092C61.371 22.6222 61.2775 22.2669 61.0156 22.0051L56.9824 17.9719C56.7268 17.7163 56.3653 17.6166 56.1783 17.7537L51.1664 21.469C49.0282 20.0789 46.622 19.069 44.0413 18.5142L43.1249 12.3803C43.0937 12.1496 42.7696 12 42.4018 12H36.6979C36.3302 12 36.0122 12.1496 35.9748 12.3803L35.071 18.5392C32.4964 19.0877 30.0902 20.0976 27.9458 21.4815L22.9339 17.7599C22.7469 17.6228 22.3916 17.7163 22.1298 17.9781L18.0966 22.0113C17.841 22.2669 17.7412 22.6285 17.8784 22.8155L21.5937 27.8274C20.2036 29.9655 19.1937 32.3718 18.6389 34.9525L12.4426 35.8689C12.2119 35.9 12 36.2242 12 36.592V42.2958C12 42.6636 12.2119 42.9815 12.4426 43.0189L18.6264 43.9353C19.175 46.5098 20.1973 48.916 21.5874 51.0604L17.8784 56.0723C17.7412 56.2593 17.841 56.6146 18.0966 56.8765L22.1298 60.9097C22.3854 61.1652 22.7469 61.265 22.9339 61.1278L27.9458 57.4126C30.084 58.8027 32.4902 59.8125 35.071 60.3673L35.9873 66.5636C36.0185 66.7943 36.3426 67.0062 36.7104 67.0062H42.4143C42.782 67.0062 43.1 66.7943 43.1374 66.5636L44.0537 60.3798C46.6282 59.8312 49.0345 58.8089 51.1789 57.4188L56.1907 61.1278C56.3778 61.265 56.7331 61.1652 56.9949 60.9097L61.0281 56.8765C61.2837 56.6209 61.3834 56.2593 61.2463 56.0723L57.531 51.0604C58.9211 48.9222 59.931 46.516 60.4858 43.9353L66.6197 43.0189C66.8504 42.9878 67 42.6636 67 42.2958V36.592C66.9875 36.218 66.8379 35.8938 66.6073 35.8626Z" stroke="white" stroke-width="2" stroke-miterlimit="10" stroke-linecap="round" stroke-linejoin="round"/>
<path d="M39.3427 51.6855C46.1594 51.6855 51.6855 46.1594 51.6855 39.3427C51.6855 32.526 46.1594 27 39.3427 27C32.526 27 27 32.526 27 39.3427C27 46.1594 32.526 51.6855 39.3427 51.6855Z" stroke="white" stroke-width="2" stroke-miterlimit="10"/>
<mask id="path-5-outside-1_629_40" maskUnits="userSpaceOnUse" x="216" y="26" width="76" height="29" fill="black">
<rect fill="white" x="216" y="26" width="76" height="29"/>
<path d="M219.711 51.1543H233.633V53H217.285L217.268 51.3477L230.68 29.252H217.689V27.4062H233.141L233.158 28.9707L219.711 51.1543ZM245.255 53.3516C243.942 53.3516 242.741 53.1055 241.651 52.6133C240.561 52.1211 239.63 51.4531 238.856 50.6094C238.071 49.7539 237.462 48.7637 237.028 47.6387C236.595 46.502 236.378 45.2949 236.378 44.0176V43.2617C236.378 41.9141 236.595 40.6543 237.028 39.4824C237.474 38.2988 238.083 37.2734 238.856 36.4062C239.606 35.5508 240.497 34.877 241.528 34.3848C242.559 33.8809 243.673 33.6289 244.868 33.6289C246.122 33.6289 247.235 33.8574 248.208 34.3145C249.181 34.7598 250.001 35.375 250.669 36.1602C251.337 36.957 251.841 37.8887 252.181 38.9551C252.52 40.0098 252.696 41.1406 252.708 42.3477V43.6309H238.47V44.2109C238.516 45.2188 238.704 46.1562 239.032 47.0234C239.36 47.8906 239.823 48.6582 240.421 49.3262C241.007 50.0059 241.716 50.5508 242.548 50.9609C243.391 51.3594 244.323 51.5586 245.343 51.5586C246.515 51.5703 247.575 51.3535 248.524 50.9082C249.474 50.4629 250.288 49.8184 250.968 48.9746L252.286 49.9766C251.571 50.9844 250.616 51.7988 249.421 52.4199C248.225 53.041 246.837 53.3516 245.255 53.3516ZM244.868 35.4395C244.001 35.4395 243.21 35.6035 242.495 35.9316C241.78 36.248 241.153 36.6875 240.614 37.25C240.075 37.8242 239.63 38.5039 239.278 39.2891C238.927 40.0742 238.686 40.9238 238.557 41.8379H250.616V41.6445C250.616 40.8711 250.475 40.1035 250.194 39.3418C249.925 38.5801 249.55 37.9121 249.069 37.3379C248.577 36.7637 247.979 36.3066 247.276 35.9668C246.573 35.6152 245.77 35.4395 244.868 35.4395ZM268.461 33.6289C268.976 33.6289 269.498 33.6641 270.025 33.7344C270.564 33.793 271.015 33.8809 271.379 33.998L271.097 36.0371C270.617 35.9316 270.131 35.8496 269.638 35.791C269.146 35.7324 268.642 35.7031 268.127 35.7031C267.236 35.7031 266.398 35.8086 265.613 36.0195C264.84 36.2188 264.142 36.5352 263.521 36.9688C262.924 37.3906 262.402 37.9238 261.957 38.5684C261.523 39.2012 261.189 39.957 260.955 40.8359L260.972 53H258.81V33.9805H260.814L260.937 36.916V37.7598C261.676 36.459 262.683 35.4453 263.961 34.7188C265.238 33.9805 266.738 33.6172 268.461 33.6289ZM273.544 43.209C273.544 41.9199 273.737 40.6953 274.124 39.5352C274.51 38.375 275.067 37.3613 275.794 36.4941C276.52 35.6152 277.405 34.918 278.448 34.4023C279.491 33.8867 280.68 33.6289 282.016 33.6289C283.34 33.6289 284.524 33.8867 285.567 34.4023C286.622 34.918 287.518 35.6094 288.256 36.4766C288.971 37.3555 289.522 38.375 289.909 39.5352C290.296 40.6953 290.495 41.9199 290.506 43.209V43.7891C290.495 45.0781 290.296 46.3027 289.909 47.4629C289.534 48.6113 288.983 49.625 288.256 50.5039C287.53 51.3711 286.645 52.0625 285.602 52.5781C284.559 53.0938 283.376 53.3516 282.051 53.3516C280.715 53.3516 279.52 53.0996 278.465 52.5957C277.411 52.0801 276.526 51.3828 275.811 50.5039C275.073 49.6367 274.51 48.623 274.124 47.4629C273.737 46.3027 273.544 45.0781 273.544 43.7891V43.209ZM275.635 43.7891C275.635 44.7969 275.776 45.7695 276.057 46.707C276.339 47.6445 276.749 48.4707 277.288 49.1855C277.827 49.9121 278.495 50.4922 279.292 50.9258C280.089 51.3477 281.008 51.5586 282.051 51.5586C283.083 51.5586 283.991 51.3477 284.776 50.9258C285.561 50.4922 286.229 49.9121 286.78 49.1855C287.307 48.459 287.706 47.6328 287.975 46.707C288.256 45.7695 288.403 44.7969 288.415 43.7891V43.209C288.403 42.2129 288.256 41.2461 287.975 40.3086C287.694 39.3711 287.29 38.5449 286.762 37.8301C286.212 37.1035 285.538 36.5234 284.741 36.0898C283.956 35.6562 283.048 35.4395 282.016 35.4395C280.973 35.4395 280.059 35.6562 279.274 36.0898C278.489 36.5234 277.827 37.1035 277.288 37.8301C276.749 38.5449 276.339 39.3711 276.057 40.3086C275.776 41.2461 275.635 42.2129 275.635 43.209V43.7891Z"/>
</mask>
<path d="M219.711 51.1543H233.633V53H217.285L217.268 51.3477L230.68 29.252H217.689V27.4062H233.141L233.158 28.9707L219.711 51.1543ZM245.255 53.3516C243.942 53.3516 242.741 53.1055 241.651 52.6133C240.561 52.1211 239.63 51.4531 238.856 50.6094C238.071 49.7539 237.462 48.7637 237.028 47.6387C236.595 46.502 236.378 45.2949 236.378 44.0176V43.2617C236.378 41.9141 236.595 40.6543 237.028 39.4824C237.474 38.2988 238.083 37.2734 238.856 36.4062C239.606 35.5508 240.497 34.877 241.528 34.3848C242.559 33.8809 243.673 33.6289 244.868 33.6289C246.122 33.6289 247.235 33.8574 248.208 34.3145C249.181 34.7598 250.001 35.375 250.669 36.1602C251.337 36.957 251.841 37.8887 252.181 38.9551C252.52 40.0098 252.696 41.1406 252.708 42.3477V43.6309H238.47V44.2109C238.516 45.2188 238.704 46.1562 239.032 47.0234C239.36 47.8906 239.823 48.6582 240.421 49.3262C241.007 50.0059 241.716 50.5508 242.548 50.9609C243.391 51.3594 244.323 51.5586 245.343 51.5586C246.515 51.5703 247.575 51.3535 248.524 50.9082C249.474 50.4629 250.288 49.8184 250.968 48.9746L252.286 49.9766C251.571 50.9844 250.616 51.7988 249.421 52.4199C248.225 53.041 246.837 53.3516 245.255 53.3516ZM244.868 35.4395C244.001 35.4395 243.21 35.6035 242.495 35.9316C241.78 36.248 241.153 36.6875 240.614 37.25C240.075 37.8242 239.63 38.5039 239.278 39.2891C238.927 40.0742 238.686 40.9238 238.557 41.8379H250.616V41.6445C250.616 40.8711 250.475 40.1035 250.194 39.3418C249.925 38.5801 249.55 37.9121 249.069 37.3379C248.577 36.7637 247.979 36.3066 247.276 35.9668C246.573 35.6152 245.77 35.4395 244.868 35.4395ZM268.461 33.6289C268.976 33.6289 269.498 33.6641 270.025 33.7344C270.564 33.793 271.015 33.8809 271.379 33.998L271.097 36.0371C270.617 35.9316 270.131 35.8496 269.638 35.791C269.146 35.7324 268.642 35.7031 268.127 35.7031C267.236 35.7031 266.398 35.8086 265.613 36.0195C264.84 36.2188 264.142 36.5352 263.521 36.9688C262.924 37.3906 262.402 37.9238 261.957 38.5684C261.523 39.2012 261.189 39.957 260.955 40.8359L260.972 53H258.81V33.9805H260.814L260.937 36.916V37.7598C261.676 36.459 262.683 35.4453 263.961 34.7188C265.238 33.9805 266.738 33.6172 268.461 33.6289ZM273.544 43.209C273.544 41.9199 273.737 40.6953 274.124 39.5352C274.51 38.375 275.067 37.3613 275.794 36.4941C276.52 35.6152 277.405 34.918 278.448 34.4023C279.491 33.8867 280.68 33.6289 282.016 33.6289C283.34 33.6289 284.524 33.8867 285.567 34.4023C286.622 34.918 287.518 35.6094 288.256 36.4766C288.971 37.3555 289.522 38.375 289.909 39.5352C290.296 40.6953 290.495 41.9199 290.506 43.209V43.7891C290.495 45.0781 290.296 46.3027 289.909 47.4629C289.534 48.6113 288.983 49.625 288.256 50.5039C287.53 51.3711 286.645 52.0625 285.602 52.5781C284.559 53.0938 283.376 53.3516 282.051 53.3516C280.715 53.3516 279.52 53.0996 278.465 52.5957C277.411 52.0801 276.526 51.3828 275.811 50.5039C275.073 49.6367 274.51 48.623 274.124 47.4629C273.737 46.3027 273.544 45.0781 273.544 43.7891V43.209ZM275.635 43.7891C275.635 44.7969 275.776 45.7695 276.057 46.707C276.339 47.6445 276.749 48.4707 277.288 49.1855C277.827 49.9121 278.495 50.4922 279.292 50.9258C280.089 51.3477 281.008 51.5586 282.051 51.5586C283.083 51.5586 283.991 51.3477 284.776 50.9258C285.561 50.4922 286.229 49.9121 286.78 49.1855C287.307 48.459 287.706 47.6328 287.975 46.707C288.256 45.7695 288.403 44.7969 288.415 43.7891V43.209C288.403 42.2129 288.256 41.2461 287.975 40.3086C287.694 39.3711 287.29 38.5449 286.762 37.8301C286.212 37.1035 285.538 36.5234 284.741 36.0898C283.956 35.6562 283.048 35.4395 282.016 35.4395C280.973 35.4395 280.059 35.6562 279.274 36.0898C278.489 36.5234 277.827 37.1035 277.288 37.8301C276.749 38.5449 276.339 39.3711 276.057 40.3086C275.776 41.2461 275.635 42.2129 275.635 43.209V43.7891Z" fill="#2E2E2E"/>
<path d="M219.711 51.1543L218.856 50.6359L217.935 52.1543H219.711V51.1543ZM233.633 51.1543H234.633V50.1543H233.633V51.1543ZM233.633 53V54H234.633V53H233.633ZM217.285 53L216.285 53.0106L216.296 54H217.285V53ZM217.268 51.3477L216.413 50.8288L216.265 51.0728L216.268 51.3583L217.268 51.3477ZM230.68 29.252L231.535 29.7708L232.456 28.252H230.68V29.252ZM217.689 29.252H216.689V30.252H217.689V29.252ZM217.689 27.4062V26.4062H216.689V27.4062H217.689ZM233.141 27.4062L234.141 27.395L234.129 26.4062H233.141V27.4062ZM233.158 28.9707L234.013 29.4891L234.161 29.2449L234.158 28.9595L233.158 28.9707ZM219.711 52.1543H233.633V50.1543H219.711V52.1543ZM232.633 51.1543V53H234.633V51.1543H232.633ZM233.633 52H217.285V54H233.633V52ZM218.285 52.9894L218.268 51.337L216.268 51.3583L216.285 53.0106L218.285 52.9894ZM218.122 51.8665L231.535 29.7708L229.825 28.7331L216.413 50.8288L218.122 51.8665ZM230.68 28.252H217.689V30.252H230.68V28.252ZM218.689 29.252V27.4062H216.689V29.252H218.689ZM217.689 28.4062H233.141V26.4062H217.689V28.4062ZM232.141 27.4175L232.158 28.9819L234.158 28.9595L234.141 27.395L232.141 27.4175ZM232.303 28.4523L218.856 50.6359L220.566 51.6727L234.013 29.4891L232.303 28.4523ZM238.856 50.6094L239.593 49.9337L239.593 49.9332L238.856 50.6094ZM237.028 47.6387L236.094 47.9951L236.095 47.9983L237.028 47.6387ZM237.028 39.4824L236.092 39.1303L236.09 39.1354L237.028 39.4824ZM238.856 36.4062L239.603 37.0719L239.608 37.0655L238.856 36.4062ZM241.528 34.3848L241.959 35.2873L241.967 35.2832L241.528 34.3848ZM248.208 34.3145L247.783 35.2196L247.792 35.2237L248.208 34.3145ZM250.669 36.1602L251.435 35.5177L251.43 35.5122L250.669 36.1602ZM252.181 38.9551L251.228 39.2587L251.229 39.2618L252.181 38.9551ZM252.708 42.3477H253.708L253.708 42.3379L252.708 42.3477ZM252.708 43.6309V44.6309H253.708V43.6309H252.708ZM238.47 43.6309V42.6309H237.47V43.6309H238.47ZM238.47 44.2109H237.47V44.2342L237.471 44.2574L238.47 44.2109ZM240.421 49.3262L241.178 48.6732L241.172 48.6662L241.166 48.6594L240.421 49.3262ZM242.548 50.9609L242.106 51.8579L242.113 51.8616L242.121 51.8652L242.548 50.9609ZM245.343 51.5586L245.353 50.5586H245.343V51.5586ZM250.968 48.9746L251.573 48.1784L250.799 47.5902L250.189 48.3473L250.968 48.9746ZM252.286 49.9766L253.102 50.5551L253.661 49.7659L252.891 49.1804L252.286 49.9766ZM242.495 35.9316L242.9 36.8462L242.912 36.8405L242.495 35.9316ZM240.614 37.25L239.892 36.5581L239.885 36.5656L240.614 37.25ZM238.557 41.8379L237.567 41.6982L237.407 42.8379H238.557V41.8379ZM250.616 41.8379V42.8379H251.616V41.8379H250.616ZM250.194 39.3418L249.251 39.6754L249.256 39.6882L250.194 39.3418ZM249.069 37.3379L249.836 36.6961L249.828 36.6871L249.069 37.3379ZM247.276 35.9668L246.829 36.8613L246.841 36.8671L247.276 35.9668ZM245.255 52.3516C244.07 52.3516 243.011 52.1302 242.063 51.7019L241.24 53.5247C242.471 54.0807 243.814 54.3516 245.255 54.3516V52.3516ZM242.063 51.7019C241.091 51.2629 240.271 50.6732 239.593 49.9337L238.119 51.2851C238.988 52.2331 240.032 52.9793 241.24 53.5247L242.063 51.7019ZM239.593 49.9332C238.896 49.1735 238.352 48.2917 237.961 47.279L236.095 47.9983C236.572 49.2356 237.246 50.3343 238.12 51.2856L239.593 49.9332ZM237.963 47.2823C237.574 46.265 237.378 45.1793 237.378 44.0176H235.378C235.378 45.4106 235.615 46.7389 236.094 47.9951L237.963 47.2823ZM237.378 44.0176V43.2617H235.378V44.0176H237.378ZM237.378 43.2617C237.378 42.0232 237.577 40.8818 237.966 39.8294L236.09 39.1354C235.613 40.4268 235.378 41.805 235.378 43.2617H237.378ZM237.964 39.8346C238.37 38.756 238.918 37.8393 239.603 37.0719L238.11 35.7406C237.248 36.7075 236.577 37.8416 236.092 39.1303L237.964 39.8346ZM239.608 37.0655C240.268 36.3125 241.05 35.7212 241.959 35.2872L241.097 33.4823C239.944 34.0327 238.944 34.7891 238.104 35.747L239.608 37.0655ZM241.967 35.2832C242.856 34.8489 243.818 34.6289 244.868 34.6289V32.6289C243.527 32.6289 242.263 32.9128 241.089 33.4863L241.967 35.2832ZM244.868 34.6289C245.999 34.6289 246.963 34.8346 247.783 35.2195L248.633 33.4094C247.507 32.8802 246.245 32.6289 244.868 32.6289V34.6289ZM247.792 35.2237C248.637 35.6105 249.337 36.1385 249.907 36.8081L251.43 35.5122C250.664 34.6115 249.725 33.909 248.624 33.4052L247.792 35.2237ZM249.902 36.8026C250.481 37.4923 250.924 38.3067 251.228 39.2587L253.133 38.6514C252.757 37.4706 252.193 36.4218 251.435 35.5178L249.902 36.8026ZM251.229 39.2618C251.535 40.2123 251.697 41.2422 251.708 42.3574L253.708 42.3379C253.695 41.039 253.506 39.8072 253.132 38.6484L251.229 39.2618ZM251.708 42.3477V43.6309H253.708V42.3477H251.708ZM252.708 42.6309H238.47V44.6309H252.708V42.6309ZM237.47 43.6309V44.2109H239.47V43.6309H237.47ZM237.471 44.2574C237.522 45.3612 237.728 46.4034 238.097 47.3773L239.967 46.6695C239.68 45.9091 239.511 45.0763 239.469 44.1645L237.471 44.2574ZM238.097 47.3773C238.467 48.3556 238.993 49.2301 239.676 49.993L241.166 48.6594C240.653 48.0863 240.253 47.4257 239.967 46.6695L238.097 47.3773ZM239.663 49.9791C240.34 50.7639 241.157 51.3904 242.106 51.8579L242.99 50.064C242.274 49.7111 241.674 49.2478 241.178 48.6732L239.663 49.9791ZM242.121 51.8652C243.11 52.3323 244.189 52.5586 245.343 52.5586V50.5586C244.457 50.5586 243.673 50.3864 242.975 50.0567L242.121 51.8652ZM245.333 52.5585C246.637 52.5716 247.849 52.3298 248.949 51.8135L248.1 50.0029C247.302 50.3772 246.392 50.569 245.353 50.5586L245.333 52.5585ZM248.949 51.8135C250.04 51.3015 250.975 50.56 251.746 49.6019L250.189 48.3473C249.601 49.0767 248.907 49.6243 248.1 50.0029L248.949 51.8135ZM250.363 49.7708L251.681 50.7727L252.891 49.1804L251.573 48.1784L250.363 49.7708ZM251.47 49.398C250.856 50.2647 250.027 50.978 248.96 51.5326L249.882 53.3073C251.205 52.6196 252.287 51.704 253.102 50.5551L251.47 49.398ZM248.96 51.5326C247.93 52.0677 246.704 52.3516 245.255 52.3516V54.3516C246.969 54.3516 248.521 54.0143 249.882 53.3073L248.96 51.5326ZM244.868 34.4395C243.872 34.4395 242.936 34.6287 242.078 35.0228L242.912 36.8405C243.483 36.5783 244.13 36.4395 244.868 36.4395V34.4395ZM242.09 35.0172C241.257 35.3862 240.522 35.9011 239.892 36.5581L241.336 37.9419C241.785 37.4739 242.304 37.1099 242.9 36.8461L242.09 35.0172ZM239.885 36.5656C239.263 37.228 238.758 38.0031 238.366 38.8804L240.191 39.6977C240.501 39.0047 240.887 38.4204 241.343 37.9344L239.885 36.5656ZM238.366 38.8804C237.973 39.7572 237.708 40.6981 237.567 41.6982L239.548 41.9775C239.664 41.1496 239.88 40.3913 240.191 39.6977L238.366 38.8804ZM238.557 42.8379H250.616V40.8379H238.557V42.8379ZM251.616 41.8379V41.6445H249.616V41.8379H251.616ZM251.616 41.6445C251.616 40.7471 251.452 39.8624 251.132 38.9954L249.256 39.6882C249.498 40.3446 249.616 40.9951 249.616 41.6445H251.616ZM251.137 39.0082C250.831 38.1431 250.399 37.3688 249.836 36.6962L248.302 37.9796C248.7 38.4554 249.019 39.0171 249.251 39.6754L251.137 39.0082ZM249.828 36.6871C249.244 36.0048 248.534 35.4643 247.711 35.0664L246.841 36.8671C247.424 37.149 247.91 37.5225 248.31 37.9887L249.828 36.6871ZM247.723 35.0724C246.862 34.6418 245.903 34.4395 244.868 34.4395V36.4395C245.638 36.4395 246.284 36.5887 246.829 36.8612L247.723 35.0724ZM268.461 33.6289L268.454 34.6289H268.461V33.6289ZM270.025 33.7344L269.893 34.7256L269.905 34.7272L269.917 34.7285L270.025 33.7344ZM271.379 33.998L272.369 34.1347L272.484 33.3038L271.686 33.0463L271.379 33.998ZM271.097 36.0371L270.883 37.0139L271.94 37.2459L272.088 36.1737L271.097 36.0371ZM265.613 36.0195L265.862 36.988L265.873 36.9853L265.613 36.0195ZM263.521 36.9688L262.949 36.1488L262.945 36.1518L263.521 36.9688ZM261.957 38.5684L261.134 37.9999L261.132 38.0031L261.957 38.5684ZM260.955 40.8359L259.989 40.5783L259.955 40.7056L259.955 40.8374L260.955 40.8359ZM260.972 53V54H261.974L261.972 52.9986L260.972 53ZM258.81 53H257.81V54H258.81V53ZM258.81 33.9805V32.9805H257.81V33.9805H258.81ZM260.814 33.9805L261.813 33.9386L261.773 32.9805H260.814V33.9805ZM260.937 36.916H261.937V36.8951L261.936 36.8741L260.937 36.916ZM260.937 37.7598H259.937V41.5476L261.807 38.2534L260.937 37.7598ZM263.961 34.7188L264.455 35.588L264.461 35.5845L263.961 34.7188ZM268.461 34.6289C268.931 34.6289 269.408 34.6609 269.893 34.7256L270.157 32.7431C269.588 32.6672 269.022 32.6289 268.461 32.6289V34.6289ZM269.917 34.7285C270.414 34.7826 270.794 34.8601 271.072 34.9498L271.686 33.0463C271.237 32.9016 270.714 32.8034 270.133 32.7402L269.917 34.7285ZM270.388 33.8614L270.107 35.9005L272.088 36.1737L272.369 34.1347L270.388 33.8614ZM271.312 35.0604C270.799 34.9479 270.281 34.8604 269.757 34.798L269.52 36.784C269.98 36.8388 270.435 36.9154 270.883 37.0139L271.312 35.0604ZM269.757 34.798C269.224 34.7346 268.68 34.7031 268.127 34.7031V36.7031C268.604 36.7031 269.069 36.7303 269.52 36.784L269.757 34.798ZM268.127 34.7031C267.157 34.7031 266.231 34.8181 265.354 35.0538L265.873 36.9853C266.565 36.7991 267.315 36.7031 268.127 36.7031V34.7031ZM265.364 35.0511C264.481 35.2785 263.673 35.6432 262.949 36.1488L264.094 37.7887C264.612 37.4271 265.198 37.159 265.862 36.9879L265.364 35.0511ZM262.945 36.1518C262.244 36.6461 261.641 37.2656 261.134 37.9999L262.78 39.1368C263.163 38.582 263.603 38.1352 264.098 37.7857L262.945 36.1518ZM261.132 38.0031C260.623 38.7453 260.247 39.6094 259.989 40.5783L261.921 41.0936C262.131 40.3046 262.423 39.6571 262.782 39.1336L261.132 38.0031ZM259.955 40.8374L259.972 53.0014L261.972 52.9986L261.955 40.8345L259.955 40.8374ZM260.972 52H258.81V54H260.972V52ZM259.81 53V33.9805H257.81V53H259.81ZM258.81 34.9805H260.814V32.9805H258.81V34.9805ZM259.815 34.0223L259.938 36.9579L261.936 36.8741L261.813 33.9386L259.815 34.0223ZM259.937 36.916V37.7598H261.937V36.916H259.937ZM261.807 38.2534C262.458 37.1064 263.337 36.2238 264.455 35.588L263.466 33.8495C262.029 34.6668 260.893 35.8116 260.068 37.2662L261.807 38.2534ZM264.461 35.5845C265.56 34.9493 266.879 34.6182 268.454 34.6289L268.468 32.6289C266.597 32.6162 264.916 33.0116 263.46 33.853L264.461 35.5845ZM275.794 36.4941L276.56 37.1364L276.564 37.1313L275.794 36.4941ZM285.567 34.4023L285.124 35.2988L285.128 35.3007L285.567 34.4023ZM288.256 36.4766L289.032 35.8456L289.025 35.8369L289.018 35.8283L288.256 36.4766ZM290.506 43.209L291.507 43.209L291.506 43.1999L290.506 43.209ZM290.506 43.7891L291.506 43.7982V43.7891H290.506ZM289.909 47.4629L288.96 47.1467L288.958 47.1525L289.909 47.4629ZM288.256 50.5039L289.023 51.1461L289.027 51.1411L288.256 50.5039ZM278.465 52.5957L278.026 53.4941L278.034 53.498L278.465 52.5957ZM275.811 50.5039L276.587 49.8729L276.58 49.8642L276.573 49.8557L275.811 50.5039ZM277.288 49.1855L278.091 48.5897L278.086 48.5835L277.288 49.1855ZM279.292 50.9258L278.814 51.8042L278.824 51.8096L279.292 50.9258ZM284.776 50.9258L285.249 51.8067L285.259 51.8012L284.776 50.9258ZM286.78 49.1855L287.577 49.7897L287.583 49.7814L287.589 49.7729L286.78 49.1855ZM287.975 46.707L287.017 46.4197L287.015 46.4275L287.975 46.707ZM288.415 43.7891L289.415 43.8007V43.7891H288.415ZM288.415 43.209L289.415 43.209L289.415 43.1972L288.415 43.209ZM286.762 37.8301L287.567 37.2364L287.559 37.226L286.762 37.8301ZM284.741 36.0898L284.257 36.9652L284.263 36.9682L284.741 36.0898ZM277.288 37.8301L278.086 38.4322L278.091 38.4259L277.288 37.8301ZM274.544 43.209C274.544 42.0216 274.721 40.9042 275.072 39.8514L273.175 39.2189C272.752 40.4865 272.544 41.8183 272.544 43.209H274.544ZM275.072 39.8514C275.423 38.8007 275.921 37.8997 276.56 37.1364L275.027 35.8519C274.214 36.8229 273.598 37.9493 273.175 39.2189L275.072 39.8514ZM276.564 37.1313C277.199 36.3631 277.972 35.7533 278.891 35.2988L278.005 33.5059C276.838 34.0826 275.841 34.8673 275.023 35.857L276.564 37.1313ZM278.891 35.2988C279.777 34.8607 280.811 34.6289 282.016 34.6289V32.6289C280.549 32.6289 279.205 32.9127 278.005 33.5059L278.891 35.2988ZM282.016 34.6289C283.208 34.6289 284.237 34.8601 285.124 35.2988L286.01 33.5059C284.812 32.9133 283.473 32.6289 282.016 32.6289V34.6289ZM285.128 35.3007C286.063 35.7579 286.849 36.3655 287.495 37.1248L289.018 35.8283C288.188 34.8532 287.18 34.078 286.006 33.504L285.128 35.3007ZM287.481 37.1075C288.114 37.8856 288.609 38.7966 288.96 39.8514L290.858 39.2189C290.436 37.9534 289.829 36.8253 289.032 35.8456L287.481 37.1075ZM288.96 39.8514C289.312 40.9072 289.496 42.0278 289.507 43.2181L291.506 43.1999C291.494 41.8121 291.279 40.4834 290.858 39.2189L288.96 39.8514ZM289.506 43.209V43.7891H291.506V43.209H289.506ZM289.507 43.78C289.496 44.9703 289.312 46.0908 288.96 47.1467L290.858 47.7791C291.279 46.5146 291.494 45.186 291.506 43.7982L289.507 43.78ZM288.958 47.1525C288.62 48.1889 288.128 49.0902 287.486 49.8668L289.027 51.1411C289.838 50.1598 290.448 49.0338 290.859 47.7733L288.958 47.1525ZM287.49 49.8617C286.855 50.6196 286.081 51.2257 285.159 51.6817L286.045 53.4746C287.209 52.8993 288.205 52.1226 289.023 51.1461L287.49 49.8617ZM285.159 51.6817C284.272 52.1203 283.243 52.3516 282.051 52.3516V54.3516C283.508 54.3516 284.847 54.0672 286.045 53.4746L285.159 51.6817ZM282.051 52.3516C280.843 52.3516 279.799 52.1244 278.897 51.6934L278.034 53.498C279.242 54.0748 280.588 54.3516 282.051 54.3516V52.3516ZM278.905 51.6973C277.975 51.243 277.207 50.6352 276.587 49.8729L275.035 51.1349C275.845 52.1304 276.846 52.9172 278.026 53.4941L278.905 51.6973ZM276.573 49.8557C275.923 49.0931 275.422 48.1942 275.072 47.1467L273.175 47.7791C273.599 49.0519 274.222 50.1803 275.05 51.1522L276.573 49.8557ZM275.072 47.1467C274.721 46.0939 274.544 44.9765 274.544 43.7891H272.544C272.544 45.1798 272.752 46.5116 273.175 47.7791L275.072 47.1467ZM274.544 43.7891V43.209H272.544V43.7891H274.544ZM274.635 43.7891C274.635 44.8913 274.789 45.9609 275.099 46.9944L277.015 46.4197C276.763 45.5782 276.635 44.7025 276.635 43.7891H274.635ZM275.099 46.9944C275.412 48.0348 275.873 48.9697 276.489 49.7876L278.086 48.5835C277.625 47.9717 277.265 47.2542 277.015 46.4197L275.099 46.9944ZM276.485 49.7814C277.111 50.625 277.89 51.3013 278.814 51.8042L279.77 50.0474C279.1 49.683 278.543 49.1992 278.091 48.5897L276.485 49.7814ZM278.824 51.8096C279.786 52.3189 280.871 52.5586 282.051 52.5586V50.5586C281.146 50.5586 280.391 50.3764 279.76 50.042L278.824 51.8096ZM282.051 52.5586C283.222 52.5586 284.297 52.3182 285.249 51.8067L284.303 50.0449C283.684 50.3771 282.944 50.5586 282.051 50.5586V52.5586ZM285.259 51.8012C286.169 51.2989 286.943 50.6257 287.577 49.7897L285.983 48.5814C285.515 49.1986 284.953 49.6855 284.293 50.0504L285.259 51.8012ZM287.589 49.7729C288.189 48.9465 288.636 48.0147 288.935 46.9866L287.015 46.4275C286.775 47.251 286.425 47.9714 285.971 48.5982L287.589 49.7729ZM288.933 46.9944C289.242 45.9647 289.402 44.8991 289.415 43.8007L287.415 43.7774C287.404 44.6946 287.271 45.5743 287.017 46.4197L288.933 46.9944ZM289.415 43.7891V43.209H287.415V43.7891H289.415ZM289.415 43.1972C289.402 42.1094 289.242 41.0498 288.933 40.0212L287.017 40.5959C287.271 41.4424 287.404 42.3164 287.415 43.2207L289.415 43.1972ZM288.933 40.0212C288.622 38.9848 288.169 38.0528 287.567 37.2364L285.958 38.4237C286.41 39.0371 286.766 39.7574 287.017 40.5959L288.933 40.0212ZM287.559 37.226C286.923 36.387 286.141 35.7132 285.219 35.2115L284.263 36.9682C284.935 37.3337 285.5 37.82 285.965 38.4342L287.559 37.226ZM285.224 35.2145C284.27 34.6876 283.191 34.4395 282.016 34.4395V36.4395C282.904 36.4395 283.641 36.6249 284.257 36.9652L285.224 35.2145ZM282.016 34.4395C280.832 34.4395 279.746 34.6867 278.791 35.2145L279.757 36.9652C280.372 36.6258 281.115 36.4395 282.016 36.4395V34.4395ZM278.791 35.2145C277.879 35.7179 277.108 36.3937 276.485 37.2342L278.091 38.4259C278.545 37.8133 279.099 37.329 279.757 36.9652L278.791 35.2145ZM276.489 37.228C275.873 38.0459 275.412 38.9808 275.099 40.0212L277.015 40.5959C277.265 39.7614 277.625 39.0439 278.086 38.4322L276.489 37.228ZM275.099 40.0212C274.79 41.0536 274.635 42.1173 274.635 43.209H276.635C276.635 42.3085 276.762 41.4386 277.015 40.5959L275.099 40.0212ZM274.635 43.209V43.7891H276.635V43.209H274.635Z" fill="white" mask="url(#path-5-outside-1_629_40)"/>
<mask id="path-7-outside-2_629_40" maskUnits="userSpaceOnUse" x="87" y="25" width="123" height="30" fill="black">
<rect fill="white" x="87" y="25" width="123" height="30"/>
<path d="M109.111 31.4316H101.219V53H96.2617V31.4316H88.4746V27.4062H109.111V31.4316ZM111.96 33.9805H122.314V49.0273H127.464V53H111.96V49.0273H117.374V37.9707H111.96V33.9805ZM117.023 29.1113C117.023 28.7363 117.087 28.3906 117.216 28.0742C117.357 27.7461 117.55 27.4648 117.796 27.2305C118.042 27.0078 118.335 26.832 118.675 26.7031C119.027 26.5742 119.414 26.5098 119.835 26.5098C120.703 26.5098 121.388 26.7559 121.892 27.248C122.408 27.7285 122.665 28.3496 122.665 29.1113C122.665 29.873 122.408 30.5 121.892 30.9922C121.388 31.4727 120.703 31.7129 119.835 31.7129C119.414 31.7129 119.027 31.6484 118.675 31.5195C118.335 31.3906 118.042 31.209 117.796 30.9746C117.55 30.752 117.357 30.4824 117.216 30.166C117.087 29.8379 117.023 29.4863 117.023 29.1113ZM130.841 53V33.9805H135.27L135.569 36.6172C135.815 36.2656 136.085 35.9434 136.378 35.6504C136.671 35.3574 136.981 35.0938 137.309 34.8594C137.872 34.4609 138.487 34.1562 139.155 33.9453C139.823 33.7344 140.532 33.6289 141.282 33.6289C142.243 33.6289 143.122 33.7695 143.919 34.0508C144.716 34.332 145.407 34.7773 145.993 35.3867C146.567 36.0078 147.013 36.8047 147.329 37.7773C147.657 38.7383 147.821 39.9102 147.821 41.293V53H142.934V41.3633C142.934 40.6133 142.847 39.998 142.671 39.5176C142.507 39.0254 142.266 38.6387 141.95 38.3574C141.634 38.0762 141.253 37.8828 140.807 37.7773C140.362 37.6602 139.858 37.6016 139.296 37.6016C138.827 37.6016 138.393 37.6543 137.995 37.7598C137.608 37.8652 137.263 38.0234 136.958 38.2344C136.712 38.3867 136.489 38.5684 136.29 38.7793C136.091 38.9902 135.909 39.2246 135.745 39.4824V53H130.841ZM158.176 45.1426L155.961 47.1992V53H151.075V26H155.961V41.4336L157.438 39.7461L162.694 33.9805H168.565L161.393 41.9082L169.567 53H163.573L158.176 45.1426ZM180.431 53.3516C178.967 53.3516 177.636 53.1113 176.441 52.6309C175.246 52.1504 174.22 51.4941 173.365 50.6621C172.51 49.8418 171.847 48.875 171.379 47.7617C170.922 46.6367 170.693 45.4355 170.693 44.1582V43.4551C170.693 42.002 170.922 40.6777 171.379 39.4824C171.836 38.2754 172.474 37.2383 173.295 36.3711C174.115 35.5039 175.088 34.8301 176.213 34.3496C177.338 33.8691 178.562 33.6289 179.886 33.6289C181.258 33.6289 182.476 33.8574 183.543 34.3145C184.621 34.7598 185.535 35.3926 186.285 36.2129C187.023 37.0332 187.586 38.0234 187.972 39.1836C188.359 40.332 188.552 41.6035 188.552 42.998V45.0723H175.65V45.125C175.814 45.8867 176.025 46.502 176.283 46.9707C176.541 47.4277 176.886 47.8438 177.32 48.2188C177.765 48.6055 178.275 48.9043 178.849 49.1152C179.424 49.3262 180.051 49.4316 180.73 49.4316C181.691 49.4316 182.623 49.25 183.525 48.8867C184.427 48.5234 185.16 47.9785 185.722 47.252L188.166 49.8887C187.545 50.7676 186.56 51.5645 185.213 52.2793C183.865 52.9941 182.271 53.3516 180.431 53.3516ZM179.851 37.584C179.301 37.584 178.797 37.6836 178.34 37.8828C177.883 38.0703 177.484 38.3457 177.144 38.709C176.793 39.0723 176.5 39.5059 176.265 40.0098C176.031 40.5137 175.855 41.0762 175.738 41.6973H183.754V41.3105C183.754 40.7949 183.66 40.3086 183.472 39.8516C183.285 39.3945 183.027 38.9961 182.699 38.6562C182.371 38.3281 181.967 38.0703 181.486 37.8828C181.017 37.6836 180.472 37.584 179.851 37.584ZM205.042 33.6289C205.78 33.6289 206.46 33.6816 207.081 33.7871C207.714 33.8809 208.224 33.9863 208.611 34.1035L207.89 38.9727C207.245 38.8203 206.583 38.709 205.904 38.6387C205.236 38.5566 204.597 38.5156 203.988 38.5156C203.355 38.5156 202.78 38.5742 202.265 38.6914C201.761 38.7969 201.31 38.9609 200.911 39.1836C200.431 39.4414 200.021 39.7695 199.681 40.168C199.341 40.5664 199.06 41.0352 198.837 41.5742V53H193.95V33.9805H198.503L198.696 36.6699L198.732 37.0918C199.505 36.0137 200.431 35.1699 201.509 34.5605C202.587 33.9395 203.765 33.6289 205.042 33.6289Z"/>
</mask>
<path d="M109.111 31.4316H101.219V53H96.2617V31.4316H88.4746V27.4062H109.111V31.4316ZM111.96 33.9805H122.314V49.0273H127.464V53H111.96V49.0273H117.374V37.9707H111.96V33.9805ZM117.023 29.1113C117.023 28.7363 117.087 28.3906 117.216 28.0742C117.357 27.7461 117.55 27.4648 117.796 27.2305C118.042 27.0078 118.335 26.832 118.675 26.7031C119.027 26.5742 119.414 26.5098 119.835 26.5098C120.703 26.5098 121.388 26.7559 121.892 27.248C122.408 27.7285 122.665 28.3496 122.665 29.1113C122.665 29.873 122.408 30.5 121.892 30.9922C121.388 31.4727 120.703 31.7129 119.835 31.7129C119.414 31.7129 119.027 31.6484 118.675 31.5195C118.335 31.3906 118.042 31.209 117.796 30.9746C117.55 30.752 117.357 30.4824 117.216 30.166C117.087 29.8379 117.023 29.4863 117.023 29.1113ZM130.841 53V33.9805H135.27L135.569 36.6172C135.815 36.2656 136.085 35.9434 136.378 35.6504C136.671 35.3574 136.981 35.0938 137.309 34.8594C137.872 34.4609 138.487 34.1562 139.155 33.9453C139.823 33.7344 140.532 33.6289 141.282 33.6289C142.243 33.6289 143.122 33.7695 143.919 34.0508C144.716 34.332 145.407 34.7773 145.993 35.3867C146.567 36.0078 147.013 36.8047 147.329 37.7773C147.657 38.7383 147.821 39.9102 147.821 41.293V53H142.934V41.3633C142.934 40.6133 142.847 39.998 142.671 39.5176C142.507 39.0254 142.266 38.6387 141.95 38.3574C141.634 38.0762 141.253 37.8828 140.807 37.7773C140.362 37.6602 139.858 37.6016 139.296 37.6016C138.827 37.6016 138.393 37.6543 137.995 37.7598C137.608 37.8652 137.263 38.0234 136.958 38.2344C136.712 38.3867 136.489 38.5684 136.29 38.7793C136.091 38.9902 135.909 39.2246 135.745 39.4824V53H130.841ZM158.176 45.1426L155.961 47.1992V53H151.075V26H155.961V41.4336L157.438 39.7461L162.694 33.9805H168.565L161.393 41.9082L169.567 53H163.573L158.176 45.1426ZM180.431 53.3516C178.967 53.3516 177.636 53.1113 176.441 52.6309C175.246 52.1504 174.22 51.4941 173.365 50.6621C172.51 49.8418 171.847 48.875 171.379 47.7617C170.922 46.6367 170.693 45.4355 170.693 44.1582V43.4551C170.693 42.002 170.922 40.6777 171.379 39.4824C171.836 38.2754 172.474 37.2383 173.295 36.3711C174.115 35.5039 175.088 34.8301 176.213 34.3496C177.338 33.8691 178.562 33.6289 179.886 33.6289C181.258 33.6289 182.476 33.8574 183.543 34.3145C184.621 34.7598 185.535 35.3926 186.285 36.2129C187.023 37.0332 187.586 38.0234 187.972 39.1836C188.359 40.332 188.552 41.6035 188.552 42.998V45.0723H175.65V45.125C175.814 45.8867 176.025 46.502 176.283 46.9707C176.541 47.4277 176.886 47.8438 177.32 48.2188C177.765 48.6055 178.275 48.9043 178.849 49.1152C179.424 49.3262 180.051 49.4316 180.73 49.4316C181.691 49.4316 182.623 49.25 183.525 48.8867C184.427 48.5234 185.16 47.9785 185.722 47.252L188.166 49.8887C187.545 50.7676 186.56 51.5645 185.213 52.2793C183.865 52.9941 182.271 53.3516 180.431 53.3516ZM179.851 37.584C179.301 37.584 178.797 37.6836 178.34 37.8828C177.883 38.0703 177.484 38.3457 177.144 38.709C176.793 39.0723 176.5 39.5059 176.265 40.0098C176.031 40.5137 175.855 41.0762 175.738 41.6973H183.754V41.3105C183.754 40.7949 183.66 40.3086 183.472 39.8516C183.285 39.3945 183.027 38.9961 182.699 38.6562C182.371 38.3281 181.967 38.0703 181.486 37.8828C181.017 37.6836 180.472 37.584 179.851 37.584ZM205.042 33.6289C205.78 33.6289 206.46 33.6816 207.081 33.7871C207.714 33.8809 208.224 33.9863 208.611 34.1035L207.89 38.9727C207.245 38.8203 206.583 38.709 205.904 38.6387C205.236 38.5566 204.597 38.5156 203.988 38.5156C203.355 38.5156 202.78 38.5742 202.265 38.6914C201.761 38.7969 201.31 38.9609 200.911 39.1836C200.431 39.4414 200.021 39.7695 199.681 40.168C199.341 40.5664 199.06 41.0352 198.837 41.5742V53H193.95V33.9805H198.503L198.696 36.6699L198.732 37.0918C199.505 36.0137 200.431 35.1699 201.509 34.5605C202.587 33.9395 203.765 33.6289 205.042 33.6289Z" fill="#2E2E2E"/>
<path d="M109.111 31.4316V32.4316H110.111V31.4316H109.111ZM101.219 31.4316V30.4316H100.219V31.4316H101.219ZM101.219 53V54H102.219V53H101.219ZM96.2617 53H95.2617V54H96.2617V53ZM96.2617 31.4316H97.2617V30.4316H96.2617V31.4316ZM88.4746 31.4316H87.4746V32.4316H88.4746V31.4316ZM88.4746 27.4062V26.4062H87.4746V27.4062H88.4746ZM109.111 27.4062H110.111V26.4062H109.111V27.4062ZM109.111 30.4316H101.219V32.4316H109.111V30.4316ZM100.219 31.4316V53H102.219V31.4316H100.219ZM101.219 52H96.2617V54H101.219V52ZM97.2617 53V31.4316H95.2617V53H97.2617ZM96.2617 30.4316H88.4746V32.4316H96.2617V30.4316ZM89.4746 31.4316V27.4062H87.4746V31.4316H89.4746ZM88.4746 28.4062H109.111V26.4062H88.4746V28.4062ZM108.111 27.4062V31.4316H110.111V27.4062H108.111ZM111.96 33.9805V32.9805H110.96V33.9805H111.96ZM122.314 33.9805H123.314V32.9805H122.314V33.9805ZM122.314 49.0273H121.314V50.0273H122.314V49.0273ZM127.464 49.0273H128.464V48.0273H127.464V49.0273ZM127.464 53V54H128.464V53H127.464ZM111.96 53H110.96V54H111.96V53ZM111.96 49.0273V48.0273H110.96V49.0273H111.96ZM117.374 49.0273V50.0273H118.374V49.0273H117.374ZM117.374 37.9707H118.374V36.9707H117.374V37.9707ZM111.96 37.9707H110.96V38.9707H111.96V37.9707ZM117.216 28.0742L116.297 27.6803L116.294 27.6886L116.29 27.6969L117.216 28.0742ZM117.796 27.2305L117.125 26.4889L117.116 26.4975L117.107 26.5063L117.796 27.2305ZM118.675 26.7031L118.331 25.7642L118.321 25.7681L118.675 26.7031ZM121.892 27.248L121.193 27.9634L121.202 27.9716L121.21 27.9797L121.892 27.248ZM121.892 30.9922L122.582 31.7159L122.583 31.7155L121.892 30.9922ZM118.675 31.5195L118.321 32.4546L118.331 32.4584L118.675 31.5195ZM117.796 30.9746L118.486 30.2505L118.477 30.2417L118.467 30.2331L117.796 30.9746ZM117.216 30.166L116.285 30.5317L116.294 30.5521L116.302 30.5722L117.216 30.166ZM111.96 34.9805H122.314V32.9805H111.96V34.9805ZM121.314 33.9805V49.0273H123.314V33.9805H121.314ZM122.314 50.0273H127.464V48.0273H122.314V50.0273ZM126.464 49.0273V53H128.464V49.0273H126.464ZM127.464 52H111.96V54H127.464V52ZM112.96 53V49.0273H110.96V53H112.96ZM111.96 50.0273H117.374V48.0273H111.96V50.0273ZM118.374 49.0273V37.9707H116.374V49.0273H118.374ZM117.374 36.9707H111.96V38.9707H117.374V36.9707ZM112.96 37.9707V33.9805H110.96V37.9707H112.96ZM118.023 29.1113C118.023 28.853 118.067 28.6369 118.142 28.4515L116.29 27.6969C116.108 28.1443 116.023 28.6196 116.023 29.1113H118.023ZM118.135 28.4681C118.225 28.2581 118.343 28.0909 118.486 27.9546L117.107 26.5063C116.758 26.8388 116.488 27.2341 116.297 27.6803L118.135 28.4681ZM118.467 27.972C118.612 27.8406 118.795 27.727 119.03 27.6381L118.321 25.7681C117.875 25.937 117.472 26.175 117.125 26.4889L118.467 27.972ZM119.019 27.642C119.248 27.5583 119.516 27.5098 119.835 27.5098V25.5098C119.311 25.5098 118.806 25.5901 118.331 25.7642L119.019 27.642ZM119.835 27.5098C120.505 27.5098 120.917 27.6939 121.193 27.9634L122.591 26.5327C121.859 25.8178 120.9 25.5098 119.835 25.5098V27.5098ZM121.21 27.9797C121.505 28.2546 121.665 28.602 121.665 29.1113H123.665C123.665 28.0972 123.31 27.2025 122.574 26.5164L121.21 27.9797ZM121.665 29.1113C121.665 29.6207 121.505 29.9793 121.202 30.2688L122.583 31.7155C123.31 31.0207 123.665 30.1254 123.665 29.1113H121.665ZM121.202 30.2684C120.927 30.5306 120.512 30.7129 119.835 30.7129V32.7129C120.893 32.7129 121.849 32.4147 122.582 31.7159L121.202 30.2684ZM119.835 30.7129C119.516 30.7129 119.248 30.6643 119.019 30.5807L118.331 32.4584C118.806 32.6325 119.311 32.7129 119.835 32.7129V30.7129ZM119.03 30.5845C118.806 30.4996 118.629 30.3867 118.486 30.2505L117.107 31.6987C117.456 32.0313 117.865 32.2817 118.321 32.4545L119.03 30.5845ZM118.467 30.2331C118.329 30.1081 118.217 29.9544 118.13 29.7599L116.302 30.5722C116.497 31.0104 116.771 31.3958 117.125 31.7161L118.467 30.2331ZM118.147 29.8004C118.067 29.596 118.023 29.3692 118.023 29.1113H116.023C116.023 29.6034 116.108 30.0798 116.285 30.5317L118.147 29.8004ZM130.841 53H129.841V54H130.841V53ZM130.841 33.9805V32.9805H129.841V33.9805H130.841ZM135.27 33.9805L136.264 33.8679L136.163 32.9805H135.27V33.9805ZM135.569 36.6172L134.576 36.7298L134.873 39.3554L136.388 37.1906L135.569 36.6172ZM137.309 34.8594L136.731 34.0433L136.728 34.0456L137.309 34.8594ZM145.993 35.3867L146.727 34.7079L146.721 34.7007L146.714 34.6936L145.993 35.3867ZM147.329 37.7773L146.378 38.0867L146.38 38.0936L146.383 38.1005L147.329 37.7773ZM147.821 53V54H148.821V53H147.821ZM142.934 53H141.934V54H142.934V53ZM142.671 39.5176L141.722 39.8338L141.727 39.8476L141.732 39.8612L142.671 39.5176ZM140.807 37.7773L140.553 38.7444L140.565 38.7476L140.577 38.7504L140.807 37.7773ZM137.995 37.7598L137.739 36.793L137.732 36.795L137.995 37.7598ZM136.958 38.2344L137.484 39.0846L137.506 39.0712L137.527 39.0566L136.958 38.2344ZM135.745 39.4824L134.901 38.9455L134.745 39.1912V39.4824H135.745ZM135.745 53V54H136.745V53H135.745ZM131.841 53V33.9805H129.841V53H131.841ZM130.841 34.9805H135.27V32.9805H130.841V34.9805ZM134.277 34.0931L134.576 36.7298L136.563 36.5046L136.264 33.8679L134.277 34.0931ZM136.388 37.1906C136.602 36.8851 136.835 36.6078 137.085 36.3575L135.671 34.9433C135.335 35.2789 135.028 35.6461 134.75 36.0437L136.388 37.1906ZM137.085 36.3575C137.34 36.1024 137.609 35.8746 137.891 35.6731L136.728 34.0456C136.354 34.3129 136.002 34.6124 135.671 34.9433L137.085 36.3575ZM137.887 35.6754C138.364 35.3379 138.886 35.0791 139.456 34.8989L138.854 32.9917C138.089 33.2334 137.38 33.584 136.731 34.0434L137.887 35.6754ZM139.456 34.8989C140.02 34.7208 140.627 34.6289 141.282 34.6289V32.6289C140.437 32.6289 139.626 32.7479 138.854 32.9917L139.456 34.8989ZM141.282 34.6289C142.145 34.6289 142.91 34.755 143.586 34.9938L144.252 33.1078C143.334 32.784 142.341 32.6289 141.282 32.6289V34.6289ZM143.586 34.9938C144.236 35.2231 144.794 35.5828 145.272 36.0798L146.714 34.6936C146.02 33.9719 145.196 33.441 144.252 33.1078L143.586 34.9938ZM145.259 36.0656C145.717 36.5608 146.097 37.2232 146.378 38.0867L148.28 37.468C147.928 36.3862 147.418 35.4549 146.727 34.7079L145.259 36.0656ZM146.383 38.1005C146.665 38.9274 146.821 39.9831 146.821 41.293H148.821C148.821 39.8372 148.649 38.5492 148.275 37.4542L146.383 38.1005ZM146.821 41.293V53H148.821V41.293H146.821ZM147.821 52H142.934V54H147.821V52ZM143.934 53V41.3633H141.934V53H143.934ZM143.934 41.3633C143.934 40.5457 143.84 39.8031 143.61 39.174L141.732 39.8612C141.853 40.193 141.934 40.6809 141.934 41.3633H143.934ZM143.619 39.2014C143.412 38.5803 143.088 38.0312 142.614 37.61L141.286 39.1048C141.445 39.2462 141.601 39.4705 141.722 39.8338L143.619 39.2014ZM142.614 37.61C142.164 37.21 141.631 36.9447 141.038 36.8043L140.577 38.7504C140.875 38.8209 141.103 38.9424 141.286 39.1048L142.614 37.61ZM141.062 36.8103C140.518 36.667 139.926 36.6016 139.296 36.6016V38.6016C139.791 38.6016 140.207 38.6533 140.553 38.7444L141.062 36.8103ZM139.296 36.6016C138.752 36.6016 138.232 36.6627 137.739 36.7931L138.251 38.7265C138.555 38.6459 138.902 38.6016 139.296 38.6016V36.6016ZM137.732 36.795C137.245 36.9279 136.794 37.1316 136.389 37.4122L137.527 39.0566C137.731 38.9152 137.972 38.8026 138.258 38.7245L137.732 36.795ZM136.432 37.3841C136.112 37.5822 135.821 37.8189 135.563 38.0927L137.017 39.4659C137.157 39.3178 137.312 39.1912 137.484 39.0846L136.432 37.3841ZM135.563 38.0927C135.318 38.3521 135.098 38.6371 134.901 38.9455L136.589 40.0193C136.72 39.8122 136.864 39.6284 137.017 39.4659L135.563 38.0927ZM134.745 39.4824V53H136.745V39.4824H134.745ZM135.745 52H130.841V54H135.745V52ZM158.176 45.1426L159 44.5764L158.345 43.6215L157.496 44.4098L158.176 45.1426ZM155.961 47.1992L155.281 46.4664L154.961 46.7631V47.1992H155.961ZM155.961 53V54H156.961V53H155.961ZM151.075 53H150.075V54H151.075V53ZM151.075 26V25H150.075V26H151.075ZM155.961 26H156.961V25H155.961V26ZM155.961 41.4336H154.961V44.095L156.714 42.0921L155.961 41.4336ZM157.438 39.7461L156.699 39.0724L156.692 39.0799L156.685 39.0876L157.438 39.7461ZM162.694 33.9805V32.9805H162.252L161.955 33.3068L162.694 33.9805ZM168.565 33.9805L169.306 34.6513L170.818 32.9805H168.565V33.9805ZM161.393 41.9082L160.651 41.2373L160.103 41.8435L160.588 42.5014L161.393 41.9082ZM169.567 53V54H171.546L170.372 52.4068L169.567 53ZM163.573 53L162.748 53.5661L163.046 54H163.573V53ZM157.496 44.4098L155.281 46.4664L156.642 47.932L158.857 45.8754L157.496 44.4098ZM154.961 47.1992V53H156.961V47.1992H154.961ZM155.961 52H151.075V54H155.961V52ZM152.075 53V26H150.075V53H152.075ZM151.075 27H155.961V25H151.075V27ZM154.961 26V41.4336H156.961V26H154.961ZM156.714 42.0921L158.19 40.4046L156.685 39.0876L155.209 40.7751L156.714 42.0921ZM158.177 40.4198L163.433 34.6542L161.955 33.3068L156.699 39.0724L158.177 40.4198ZM162.694 34.9805H168.565V32.9805H162.694V34.9805ZM167.823 33.3096L160.651 41.2373L162.134 42.5791L169.306 34.6513L167.823 33.3096ZM160.588 42.5014L168.762 53.5932L170.372 52.4068L162.198 41.315L160.588 42.5014ZM169.567 52H163.573V54H169.567V52ZM164.397 52.4339L159 44.5764L157.352 45.7087L162.748 53.5661L164.397 52.4339ZM173.365 50.6621L174.062 49.9452L174.057 49.9403L173.365 50.6621ZM171.379 47.7617L170.452 48.1381L170.457 48.1498L171.379 47.7617ZM171.379 39.4824L172.313 39.8396L172.314 39.8365L171.379 39.4824ZM183.543 34.3145L183.149 35.2337L183.161 35.2387L183.543 34.3145ZM186.285 36.2129L187.028 35.5439L187.023 35.5381L186.285 36.2129ZM187.972 39.1836L187.024 39.4998L187.025 39.5027L187.972 39.1836ZM188.552 45.0723V46.0723H189.552V45.0723H188.552ZM175.65 45.0723V44.0723H174.65V45.0723H175.65ZM175.65 45.125H174.65V45.2315L174.673 45.3356L175.65 45.125ZM176.283 46.9707L175.407 47.4526L175.412 47.462L176.283 46.9707ZM177.32 48.2188L177.976 47.4637L177.974 47.4624L177.32 48.2188ZM185.722 47.252L186.456 46.5723L185.654 45.7068L184.932 46.6398L185.722 47.252ZM188.166 49.8887L188.982 50.4658L189.45 49.8037L188.899 49.209L188.166 49.8887ZM185.213 52.2793L184.744 51.3959L185.213 52.2793ZM178.34 37.8828L178.719 38.808L178.729 38.8039L178.739 38.7995L178.34 37.8828ZM177.144 38.709L177.863 39.4044L177.869 39.3983L177.875 39.3921L177.144 38.709ZM175.738 41.6973L174.755 41.5119L174.532 42.6973H175.738V41.6973ZM183.754 41.6973V42.6973H184.754V41.6973H183.754ZM182.699 38.6562L183.418 37.9617L183.412 37.9553L183.406 37.9491L182.699 38.6562ZM181.486 37.8828L181.095 38.8031L181.109 38.809L181.123 38.8144L181.486 37.8828ZM180.431 52.3516C179.077 52.3516 177.876 52.1297 176.814 51.703L176.068 53.5587C177.397 54.0929 178.856 54.3516 180.431 54.3516V52.3516ZM176.814 51.703C175.73 51.2672 174.817 50.6795 174.062 49.9453L172.668 51.379C173.624 52.3088 174.762 53.0336 176.068 53.5587L176.814 51.703ZM174.057 49.9403C173.302 49.2163 172.717 48.3637 172.3 47.3737L170.457 48.1498C170.978 49.3863 171.717 50.4673 172.673 51.3839L174.057 49.9403ZM172.305 47.3853C171.899 46.386 171.693 45.3133 171.693 44.1582H169.693C169.693 45.5578 169.944 46.8874 170.452 48.1381L172.305 47.3853ZM171.693 44.1582V43.4551H169.693V44.1582H171.693ZM171.693 43.4551C171.693 42.1076 171.905 40.9065 172.313 39.8396L170.445 39.1253C169.938 40.449 169.693 41.8963 169.693 43.4551H171.693ZM172.314 39.8365C172.728 38.7431 173.299 37.8218 174.021 37.0583L172.568 35.6839C171.65 36.6548 170.944 37.8077 170.443 39.1283L172.314 39.8365ZM174.021 37.0583C174.745 36.2931 175.603 35.6973 176.605 35.2692L175.82 33.43C174.572 33.9629 173.485 34.7147 172.568 35.6839L174.021 37.0583ZM176.605 35.2692C177.596 34.8461 178.686 34.6289 179.886 34.6289V32.6289C178.439 32.6289 177.079 32.8922 175.82 33.43L176.605 35.2692ZM179.886 34.6289C181.146 34.6289 182.227 34.8387 183.149 35.2336L183.937 33.3953C182.725 32.8761 181.369 32.6289 179.886 32.6289V34.6289ZM183.161 35.2387C184.11 35.6308 184.901 36.181 185.547 36.8877L187.023 35.5381C186.169 34.6042 185.131 33.8887 183.924 33.3902L183.161 35.2387ZM185.542 36.8819C186.178 37.5894 186.676 38.4559 187.024 39.4998L188.921 38.8674C188.496 37.5909 187.868 36.477 187.028 35.5439L185.542 36.8819ZM187.025 39.5027C187.372 40.5341 187.552 41.696 187.552 42.998H189.552C189.552 41.5111 189.346 40.1299 188.92 38.8645L187.025 39.5027ZM187.552 42.998V45.0723H189.552V42.998H187.552ZM188.552 44.0723H175.65V46.0723H188.552V44.0723ZM174.65 45.0723V45.125H176.65V45.0723H174.65ZM174.673 45.3356C174.849 46.153 175.086 46.8697 175.407 47.4526L177.159 46.4888C176.964 46.1342 176.78 45.6204 176.628 44.9144L174.673 45.3356ZM175.412 47.462C175.731 48.0281 176.153 48.5318 176.666 48.9751L177.974 47.4624C177.62 47.1557 177.35 46.8274 177.154 46.4794L175.412 47.462ZM176.664 48.9738C177.205 49.443 177.821 49.8027 178.505 50.0539L179.194 48.1766C178.73 48.0059 178.326 47.7679 177.976 47.4637L176.664 48.9738ZM178.505 50.0539C179.201 50.3097 179.946 50.4316 180.73 50.4316V48.4316C180.155 48.4316 179.646 48.3427 179.194 48.1766L178.505 50.0539ZM180.73 50.4316C181.821 50.4316 182.879 50.2248 183.899 49.8144L183.152 47.9591C182.367 48.2752 181.562 48.4316 180.73 48.4316V50.4316ZM183.899 49.8144C184.956 49.3888 185.836 48.7393 186.513 47.8641L184.932 46.6398C184.484 47.2177 183.899 47.658 183.152 47.9591L183.899 49.8144ZM184.989 47.9317L187.432 50.5684L188.899 49.209L186.456 46.5723L184.989 47.9317ZM187.349 49.3116C186.848 50.0204 186.007 50.7258 184.744 51.3959L185.681 53.1627C187.113 52.4031 188.241 51.5147 188.982 50.4658L187.349 49.3116ZM184.744 51.3959C183.568 52.0199 182.141 52.3516 180.431 52.3516V54.3516C182.401 54.3516 184.162 53.9684 185.681 53.1627L184.744 51.3959ZM179.851 36.584C179.178 36.584 178.536 36.7064 177.94 36.9661L178.739 38.7995C179.058 38.6607 179.424 38.584 179.851 38.584V36.584ZM177.96 36.9576C177.369 37.2001 176.851 37.5584 176.414 38.0258L177.875 39.3921C178.117 39.133 178.396 38.9406 178.719 38.808L177.96 36.9576ZM176.426 38.0136C175.989 38.4645 175.635 38.993 175.359 39.588L177.172 40.4315C177.364 40.0187 177.596 39.68 177.863 39.4044L176.426 38.0136ZM175.359 39.588C175.085 40.1767 174.886 40.8201 174.755 41.5119L176.721 41.8827C176.825 41.3323 176.977 40.8506 177.172 40.4315L175.359 39.588ZM175.738 42.6973H183.754V40.6973H175.738V42.6973ZM184.754 41.6973V41.3105H182.754V41.6973H184.754ZM184.754 41.3105C184.754 40.6705 184.637 40.0547 184.398 39.472L182.547 40.2311C182.683 40.5625 182.754 40.9193 182.754 41.3105H184.754ZM184.398 39.472C184.164 38.9033 183.838 38.3967 183.418 37.9617L181.98 39.3508C182.216 39.5955 182.406 39.8857 182.547 40.2311L184.398 39.472ZM183.406 37.9491C182.97 37.5129 182.444 37.1834 181.85 36.9512L181.123 38.8144C181.489 38.9572 181.772 39.1434 181.992 39.3634L183.406 37.9491ZM181.877 36.9625C181.261 36.7005 180.578 36.584 179.851 36.584V38.584C180.367 38.584 180.774 38.6667 181.095 38.8031L181.877 36.9625ZM207.081 33.7871L206.914 34.773L206.924 34.7748L206.935 34.7763L207.081 33.7871ZM208.611 34.1035L209.6 34.2499L209.726 33.3966L208.901 33.1465L208.611 34.1035ZM207.89 38.9727L207.66 39.9458L208.72 40.1963L208.879 39.1191L207.89 38.9727ZM205.904 38.6387L205.782 39.6312L205.791 39.6324L205.801 39.6334L205.904 38.6387ZM202.265 38.6914L202.47 39.6702L202.478 39.6684L202.486 39.6665L202.265 38.6914ZM200.911 39.1836L201.384 40.0648L201.392 40.0607L201.399 40.0565L200.911 39.1836ZM198.837 41.5742L197.913 41.1925L197.837 41.3758V41.5742H198.837ZM198.837 53V54H199.837V53H198.837ZM193.95 53H192.95V54H193.95V53ZM193.95 33.9805V32.9805H192.95V33.9805H193.95ZM198.503 33.9805L199.501 33.9088L199.434 32.9805H198.503V33.9805ZM198.696 36.6699L197.699 36.7416L197.7 36.753L198.696 36.6699ZM198.732 37.0918L197.735 37.1748L197.961 39.882L199.544 37.6747L198.732 37.0918ZM201.509 34.5605L202.001 35.4311L202.008 35.427L201.509 34.5605ZM205.042 34.6289C205.734 34.6289 206.357 34.6784 206.914 34.773L207.249 32.8012C206.564 32.6849 205.827 32.6289 205.042 32.6289V34.6289ZM206.935 34.7763C207.543 34.8665 208 34.9633 208.321 35.0605L208.901 33.1465C208.448 33.0093 207.885 32.8952 207.228 32.7979L206.935 34.7763ZM207.621 33.9571L206.901 38.8262L208.879 39.1191L209.6 34.2499L207.621 33.9571ZM208.12 37.9995C207.432 37.8369 206.728 37.7186 206.006 37.644L205.801 39.6334C206.439 39.6994 207.058 39.8037 207.66 39.9458L208.12 37.9995ZM206.025 37.6461C205.321 37.5596 204.642 37.5156 203.988 37.5156V39.5156C204.552 39.5156 205.15 39.5536 205.782 39.6312L206.025 37.6461ZM203.988 37.5156C203.294 37.5156 202.644 37.5797 202.043 37.7163L202.486 39.6665C202.917 39.5687 203.415 39.5156 203.988 39.5156V37.5156ZM202.06 37.7126C201.469 37.8362 200.921 38.0327 200.424 38.3107L201.399 40.0565C201.699 39.8892 202.052 39.7575 202.47 39.6702L202.06 37.7126ZM200.439 38.3024C199.853 38.6166 199.344 39.0221 198.92 39.519L200.442 40.8169C200.698 40.517 201.009 40.2662 201.384 40.0648L200.439 38.3024ZM198.92 39.519C198.505 40.0059 198.171 40.5672 197.913 41.1925L199.761 41.956C199.948 41.5031 200.177 41.1269 200.442 40.8169L198.92 39.519ZM197.837 41.5742V53H199.837V41.5742H197.837ZM198.837 52H193.95V54H198.837V52ZM194.95 53V33.9805H192.95V53H194.95ZM193.95 34.9805H198.503V32.9805H193.95V34.9805ZM197.506 34.0522L197.699 36.7416L199.694 36.5982L199.501 33.9088L197.506 34.0522ZM197.7 36.753L197.735 37.1748L199.728 37.0088L199.693 36.5869L197.7 36.753ZM199.544 37.6747C200.239 36.706 201.058 35.964 202.001 35.4311L201.017 33.69C199.803 34.3758 198.771 35.3213 197.919 36.5089L199.544 37.6747ZM202.008 35.427C202.93 34.8958 203.935 34.6289 205.042 34.6289V32.6289C203.595 32.6289 202.244 32.9831 201.01 33.694L202.008 35.427Z" fill="white" mask="url(#path-7-outside-2_629_40)"/>
</g>
<defs>
<clipPath id="logo-clip-path">
<rect width="293" height="80" fill="white"/>
</clipPath>
</defs>
</svg>
